<?xml version="1.0" encoding="UTF-8" standalone="no"?>
<!-- Created with Inkscape (http://www.inkscape.org/) -->

<svg
   width="210mm"
   height="297mm"
   viewBox="0 0 210 297"
   version="1.1"
   id="svg5"
   sodipodi:docname="fig3.svg"
   inkscape:version="1.1 (1:1.1+202105261517+ce6663b3b7)"
   inkscape:export-filename="/home/yuehan/catkin_ws/src/gloc/data/figure/fig31.png"
   inkscape:export-xdpi="500"
   inkscape:export-ydpi="500"
   xmlns:inkscape="http://www.inkscape.org/namespaces/inkscape"
   xmlns:sodipodi="http://sodipodi.sourceforge.net/DTD/sodipodi-0.dtd"
   xmlns:xlink="http://www.w3.org/1999/xlink"
   xmlns="http://www.w3.org/2000/svg"
   xmlns:svg="http://www.w3.org/2000/svg">
  <sodipodi:namedview
     id="namedview7"
     pagecolor="#ffffff"
     bordercolor="#666666"
     borderopacity="1.0"
     inkscape:pageshadow="2"
     inkscape:pageopacity="0.0"
     inkscape:pagecheckerboard="0"
     inkscape:document-units="mm"
     showgrid="false"
     inkscape:snap-object-midpoints="false"
     inkscape:zoom="1.4609989"
     inkscape:cx="188.22739"
     inkscape:cy="347.36509"
     inkscape:window-width="1848"
     inkscape:window-height="1009"
     inkscape:window-x="72"
     inkscape:window-y="34"
     inkscape:window-maximized="1"
     inkscape:current-layer="layer1" />
  <defs
     id="defs2">
    <inkscape:path-effect
       effect="bspline"
       id="path-effect4517"
       is_visible="true"
       lpeversion="1"
       weight="33.333333"
       steps="2"
       helper_size="0"
       apply_no_weight="true"
       apply_with_weight="true"
       only_selected="false" />
    <inkscape:path-effect
       effect="bspline"
       id="path-effect4446"
       is_visible="true"
       lpeversion="1"
       weight="33.333333"
       steps="2"
       helper_size="0"
       apply_no_weight="true"
       apply_with_weight="true"
       only_selected="false" />
    <inkscape:path-effect
       effect="bspline"
       id="path-effect4411"
       is_visible="true"
       lpeversion="1"
       weight="33.333333"
       steps="2"
       helper_size="0"
       apply_no_weight="true"
       apply_with_weight="true"
       only_selected="false" />
    <inkscape:path-effect
       effect="bspline"
       id="path-effect4376"
       is_visible="true"
       lpeversion="1"
       weight="33.333333"
       steps="2"
       helper_size="0"
       apply_no_weight="true"
       apply_with_weight="true"
       only_selected="false" />
    <inkscape:path-effect
       effect="bspline"
       id="path-effect4341"
       is_visible="true"
       lpeversion="1"
       weight="33.333333"
       steps="2"
       helper_size="0"
       apply_no_weight="true"
       apply_with_weight="true"
       only_selected="false" />
    <inkscape:path-effect
       effect="bspline"
       id="path-effect4290"
       is_visible="true"
       lpeversion="1"
       weight="33.333333"
       steps="2"
       helper_size="0"
       apply_no_weight="true"
       apply_with_weight="true"
       only_selected="false" />
    <inkscape:path-effect
       effect="bspline"
       id="path-effect4175"
       is_visible="true"
       lpeversion="1"
       weight="33.333333"
       steps="2"
       helper_size="0"
       apply_no_weight="true"
       apply_with_weight="true"
       only_selected="false" />
    <inkscape:path-effect
       effect="bspline"
       id="path-effect4122"
       is_visible="true"
       lpeversion="1"
       weight="33.333333"
       steps="2"
       helper_size="0"
       apply_no_weight="true"
       apply_with_weight="true"
       only_selected="false" />
    <inkscape:path-effect
       effect="bspline"
       id="path-effect4087"
       is_visible="true"
       lpeversion="1"
       weight="33.333333"
       steps="2"
       helper_size="0"
       apply_no_weight="true"
       apply_with_weight="true"
       only_selected="false" />
    <inkscape:path-effect
       effect="bspline"
       id="path-effect3918"
       is_visible="true"
       lpeversion="1"
       weight="33.333333"
       steps="2"
       helper_size="0"
       apply_no_weight="true"
       apply_with_weight="true"
       only_selected="false" />
    <inkscape:path-effect
       effect="bspline"
       id="path-effect3801"
       is_visible="true"
       lpeversion="1"
       weight="33.333333"
       steps="2"
       helper_size="0"
       apply_no_weight="true"
       apply_with_weight="true"
       only_selected="false" />
    <inkscape:path-effect
       effect="bspline"
       id="path-effect2872"
       is_visible="true"
       lpeversion="1"
       weight="33.333333"
       steps="2"
       helper_size="0"
       apply_no_weight="true"
       apply_with_weight="true"
       only_selected="false" />
    <inkscape:path-effect
       effect="bspline"
       id="path-effect2810"
       is_visible="true"
       lpeversion="1"
       weight="33.333333"
       steps="2"
       helper_size="0"
       apply_no_weight="true"
       apply_with_weight="true"
       only_selected="false" />
    <rect
       x="-127.51542"
       y="291.03235"
       width="103.47472"
       height="49.960301"
       id="rect11343" />
    <inkscape:path-effect
       effect="bspline"
       id="path-effect4337"
       is_visible="true"
       lpeversion="1"
       weight="33.333333"
       steps="2"
       helper_size="0"
       apply_no_weight="true"
       apply_with_weight="true"
       only_selected="false" />
    <inkscape:path-effect
       effect="bspline"
       id="path-effect4167"
       is_visible="true"
       lpeversion="1"
       weight="33.333333"
       steps="2"
       helper_size="0"
       apply_no_weight="true"
       apply_with_weight="true"
       only_selected="false" />
    <inkscape:path-effect
       effect="bspline"
       id="path-effect4130"
       is_visible="true"
       lpeversion="1"
       weight="33.333333"
       steps="2"
       helper_size="0"
       apply_no_weight="true"
       apply_with_weight="true"
       only_selected="false" />
    <inkscape:path-effect
       effect="bspline"
       id="path-effect4025"
       is_visible="true"
       lpeversion="1"
       weight="33.333333"
       steps="2"
       helper_size="0"
       apply_no_weight="true"
       apply_with_weight="true"
       only_selected="false" />
    <inkscape:path-effect
       effect="bspline"
       id="path-effect4021"
       is_visible="true"
       lpeversion="1"
       weight="33.333333"
       steps="2"
       helper_size="0"
       apply_no_weight="true"
       apply_with_weight="true"
       only_selected="false" />
    <inkscape:path-effect
       effect="bspline"
       id="path-effect4017"
       is_visible="true"
       lpeversion="1"
       weight="33.333333"
       steps="2"
       helper_size="0"
       apply_no_weight="true"
       apply_with_weight="true"
       only_selected="false" />
    <inkscape:path-effect
       effect="bspline"
       id="path-effect4013"
       is_visible="true"
       lpeversion="1"
       weight="33.333333"
       steps="2"
       helper_size="0"
       apply_no_weight="true"
       apply_with_weight="true"
       only_selected="false" />
    <inkscape:path-effect
       effect="bspline"
       id="path-effect4009"
       is_visible="true"
       lpeversion="1"
       weight="33.333333"
       steps="2"
       helper_size="0"
       apply_no_weight="true"
       apply_with_weight="true"
       only_selected="false" />
    <inkscape:path-effect
       effect="bspline"
       id="path-effect4005"
       is_visible="true"
       lpeversion="1"
       weight="33.333333"
       steps="2"
       helper_size="0"
       apply_no_weight="true"
       apply_with_weight="true"
       only_selected="false" />
    <inkscape:path-effect
       effect="bspline"
       id="path-effect4001"
       is_visible="true"
       lpeversion="1"
       weight="33.333333"
       steps="2"
       helper_size="0"
       apply_no_weight="true"
       apply_with_weight="true"
       only_selected="false" />
    <inkscape:path-effect
       effect="bspline"
       id="path-effect3997"
       is_visible="true"
       lpeversion="1"
       weight="33.333333"
       steps="2"
       helper_size="0"
       apply_no_weight="true"
       apply_with_weight="true"
       only_selected="false" />
    <inkscape:path-effect
       effect="bspline"
       id="path-effect3993"
       is_visible="true"
       lpeversion="1"
       weight="33.333333"
       steps="2"
       helper_size="0"
       apply_no_weight="true"
       apply_with_weight="true"
       only_selected="false" />
    <inkscape:path-effect
       effect="bspline"
       id="path-effect3803"
       is_visible="true"
       lpeversion="1"
       weight="33.333333"
       steps="2"
       helper_size="0"
       apply_no_weight="true"
       apply_with_weight="true"
       only_selected="false" />
    <inkscape:path-effect
       effect="bspline"
       id="path-effect3648"
       is_visible="true"
       lpeversion="1"
       weight="33.333333"
       steps="2"
       helper_size="0"
       apply_no_weight="true"
       apply_with_weight="true"
       only_selected="false" />
    <inkscape:path-effect
       effect="bspline"
       id="path-effect3644"
       is_visible="true"
       lpeversion="1"
       weight="33.333333"
       steps="2"
       helper_size="0"
       apply_no_weight="true"
       apply_with_weight="true"
       only_selected="false" />
    <inkscape:path-effect
       effect="bspline"
       id="path-effect3565"
       is_visible="true"
       lpeversion="1"
       weight="33.333333"
       steps="2"
       helper_size="0"
       apply_no_weight="true"
       apply_with_weight="true"
       only_selected="false" />
    <inkscape:path-effect
       effect="bspline"
       id="path-effect3561"
       is_visible="true"
       lpeversion="1"
       weight="33.333333"
       steps="2"
       helper_size="0"
       apply_no_weight="true"
       apply_with_weight="true"
       only_selected="false" />
    <inkscape:path-effect
       effect="bspline"
       id="path-effect3557"
       is_visible="true"
       lpeversion="1"
       weight="33.333333"
       steps="2"
       helper_size="0"
       apply_no_weight="true"
       apply_with_weight="true"
       only_selected="false" />
    <inkscape:path-effect
       effect="bspline"
       id="path-effect3217"
       is_visible="true"
       lpeversion="1"
       weight="33.333333"
       steps="2"
       helper_size="0"
       apply_no_weight="true"
       apply_with_weight="true"
       only_selected="false" />
    <inkscape:path-effect
       effect="bspline"
       id="path-effect2878"
       is_visible="true"
       lpeversion="1"
       weight="33.333333"
       steps="2"
       helper_size="0"
       apply_no_weight="true"
       apply_with_weight="true"
       only_selected="false" />
    <inkscape:path-effect
       effect="bspline"
       id="path-effect2665"
       is_visible="true"
       lpeversion="1"
       weight="33.333333"
       steps="2"
       helper_size="0"
       apply_no_weight="true"
       apply_with_weight="true"
       only_selected="false" />
    <inkscape:path-effect
       effect="bspline"
       id="path-effect859"
       is_visible="true"
       lpeversion="1"
       weight="33.333333"
       steps="2"
       helper_size="0"
       apply_no_weight="true"
       apply_with_weight="true"
       only_selected="false" />
    <rect
       x="-127.51542"
       y="291.03235"
       width="317.72072"
       height="58.084336"
       id="rect11343-1" />
    <g
       id="g7181">
      <symbol
         overflow="visible"
         id="symbol3120">
        <path
           style="stroke:none;"
           d=""
           id="path1331" />
      </symbol>
      <symbol
         overflow="visible"
         id="symbol3545">
        <path
           style="stroke:none;"
           d="M 0.875 -0.59375 C 0.84375 -0.4375 0.78125 -0.203125 0.78125 -0.15625 C 0.78125 0.015625 0.921875 0.109375 1.078125 0.109375 C 1.203125 0.109375 1.375 0.03125 1.453125 -0.171875 C 1.453125 -0.1875 1.578125 -0.65625 1.640625 -0.90625 L 1.859375 -1.796875 C 1.90625 -2.03125 1.96875 -2.25 2.03125 -2.46875 C 2.0625 -2.640625 2.140625 -2.9375 2.15625 -2.96875 C 2.296875 -3.28125 2.828125 -4.1875 3.78125 -4.1875 C 4.234375 -4.1875 4.3125 -3.8125 4.3125 -3.484375 C 4.3125 -3.234375 4.25 -2.953125 4.171875 -2.65625 L 3.890625 -1.5 L 3.6875 -0.75 C 3.65625 -0.546875 3.5625 -0.203125 3.5625 -0.15625 C 3.5625 0.015625 3.703125 0.109375 3.84375 0.109375 C 4.15625 0.109375 4.21875 -0.140625 4.296875 -0.453125 C 4.4375 -1.015625 4.8125 -2.46875 4.890625 -2.859375 C 4.921875 -2.984375 5.453125 -4.1875 6.546875 -4.1875 C 6.96875 -4.1875 7.078125 -3.84375 7.078125 -3.484375 C 7.078125 -2.921875 6.65625 -1.78125 6.453125 -1.25 C 6.375 -1.015625 6.328125 -0.90625 6.328125 -0.703125 C 6.328125 -0.234375 6.671875 0.109375 7.140625 0.109375 C 8.078125 0.109375 8.453125 -1.34375 8.453125 -1.421875 C 8.453125 -1.53125 8.359375 -1.53125 8.328125 -1.53125 C 8.234375 -1.53125 8.234375 -1.5 8.1875 -1.34375 C 8.03125 -0.8125 7.71875 -0.109375 7.171875 -0.109375 C 7 -0.109375 6.921875 -0.203125 6.921875 -0.4375 C 6.921875 -0.6875 7.015625 -0.921875 7.109375 -1.140625 C 7.296875 -1.671875 7.71875 -2.765625 7.71875 -3.34375 C 7.71875 -3.984375 7.3125 -4.40625 6.5625 -4.40625 C 5.828125 -4.40625 5.3125 -3.96875 4.9375 -3.4375 C 4.9375 -3.5625 4.90625 -3.90625 4.625 -4.140625 C 4.375 -4.359375 4.0625 -4.40625 3.8125 -4.40625 C 2.90625 -4.40625 2.421875 -3.765625 2.25 -3.53125 C 2.203125 -4.109375 1.78125 -4.40625 1.328125 -4.40625 C 0.875 -4.40625 0.6875 -4.015625 0.59375 -3.84375 C 0.421875 -3.484375 0.296875 -2.90625 0.296875 -2.875 C 0.296875 -2.765625 0.390625 -2.765625 0.40625 -2.765625 C 0.515625 -2.765625 0.515625 -2.78125 0.578125 -3 C 0.75 -3.703125 0.953125 -4.1875 1.3125 -4.1875 C 1.46875 -4.1875 1.609375 -4.109375 1.609375 -3.734375 C 1.609375 -3.515625 1.578125 -3.40625 1.453125 -2.890625 Z M 0.875 -0.59375 "
           id="path182" />
      </symbol>
      <symbol
         overflow="visible"
         id="symbol2249">
        <path
           style="stroke:none;"
           d=""
           id="path1830" />
      </symbol>
      <symbol
         overflow="visible"
         id="symbol6697">
        <path
           style="stroke:none;"
           d="M 1.96875 -4.625 C 1.96875 -4.640625 2 -4.734375 2 -4.734375 C 2 -4.78125 1.96875 -4.84375 1.875 -4.84375 C 1.734375 -4.84375 1.15625 -4.78125 0.984375 -4.765625 C 0.9375 -4.765625 0.84375 -4.75 0.84375 -4.609375 C 0.84375 -4.515625 0.9375 -4.515625 1.015625 -4.515625 C 1.359375 -4.515625 1.359375 -4.453125 1.359375 -4.40625 C 1.359375 -4.359375 1.34375 -4.3125 1.328125 -4.25 L 0.453125 -0.8125 C 0.4375 -0.734375 0.4375 -0.65625 0.4375 -0.59375 C 0.4375 -0.140625 0.828125 0.0625 1.15625 0.0625 C 1.328125 0.0625 1.546875 0.015625 1.71875 -0.296875 C 1.875 -0.5625 1.96875 -0.96875 1.96875 -1 C 1.96875 -1.09375 1.875 -1.09375 1.859375 -1.09375 C 1.75 -1.09375 1.734375 -1.046875 1.71875 -0.921875 C 1.625 -0.578125 1.484375 -0.125 1.1875 -0.125 C 1 -0.125 0.953125 -0.296875 0.953125 -0.46875 C 0.953125 -0.546875 0.96875 -0.671875 1 -0.75 Z M 1.96875 -4.625 "
           id="path5891" />
      </symbol>
    </g>
    <g
       id="g9532">
      <symbol
         overflow="visible"
         id="symbol2276">
        <path
           style="stroke:none;"
           d=""
           id="path1089" />
      </symbol>
      <symbol
         overflow="visible"
         id="symbol5589">
        <path
           style="stroke:none;"
           d="M 3.84375 -5.578125 C 4.109375 -4.28125 4.546875 -2.140625 5.109375 -0.984375 C 5.328125 -0.5625 5.4375 -0.34375 5.546875 -0.34375 C 5.578125 -0.34375 5.609375 -0.34375 5.78125 -0.515625 C 6.546875 -1.25 7.0625 -1.828125 7.75 -2.625 L 9.9375 -5.15625 C 9.796875 -4.3125 9.4375 -2.078125 9.4375 -0.90625 C 9.4375 -0.640625 9.453125 -0.375 9.484375 -0.109375 C 9.484375 0 9.53125 0.296875 9.953125 0.296875 C 10.375 0.296875 11.125 -0.15625 11.125 -0.34375 C 11.125 -0.40625 11.0625 -0.421875 11.03125 -0.421875 C 10.90625 -0.421875 10.703125 -0.328125 10.59375 -0.265625 C 10.359375 -0.296875 10.34375 -0.453125 10.3125 -0.671875 C 10.28125 -1 10.28125 -1.296875 10.28125 -1.328125 C 10.28125 -2.4375 10.71875 -5.46875 11.015625 -6.703125 C 11.03125 -6.765625 11.03125 -6.78125 11.03125 -6.875 C 11.03125 -6.90625 11.03125 -7.015625 10.953125 -7.015625 C 10.921875 -7.015625 10.90625 -7.015625 10.71875 -6.78125 C 9.78125 -5.65625 6.875 -2.15625 5.875 -1.328125 C 5.625 -1.859375 5.453125 -2.234375 5.109375 -3.625 C 4.8125 -4.75 4.640625 -5.578125 4.46875 -6.546875 C 4.453125 -6.6875 4.390625 -6.953125 4.390625 -6.984375 C 4.359375 -7.03125 4.3125 -7.03125 4.28125 -7.03125 C 4.109375 -7.03125 3.6875 -6.8125 3.65625 -6.59375 C 3.53125 -5.765625 3.34375 -4.453125 2.640625 -2.546875 C 1.84375 -0.421875 1.625 -0.421875 1.4375 -0.421875 C 1.3125 -0.421875 0.9375 -0.5 0.71875 -0.703125 C 0.671875 -0.75 0.640625 -0.75 0.625 -0.75 C 0.484375 -0.75 0.265625 -0.296875 0.265625 -0.015625 C 0.265625 0.0625 0.265625 0.1875 0.59375 0.359375 C 0.84375 0.484375 1.078125 0.5 1.125 0.5 C 1.75 0.5 2.328125 -0.921875 2.53125 -1.4375 C 3 -2.5625 3.5625 -4.140625 3.84375 -5.578125 Z M 3.84375 -5.578125 "
           id="path6675" />
      </symbol>
    </g>
    <g
       id="g1976">
      <symbol
         overflow="visible"
         id="symbol8317">
        <path
           style="stroke:none;"
           d=""
           id="path8724" />
      </symbol>
      <symbol
         overflow="visible"
         id="symbol1198">
        <path
           style="stroke:none;"
           d="M 3.453125 -2.453125 L 4.609375 -3.75 C 4.75 -3.890625 4.8125 -3.953125 5.625 -3.953125 L 5.625 -4.421875 C 5.28125 -4.40625 4.765625 -4.390625 4.71875 -4.390625 C 4.46875 -4.390625 3.96875 -4.421875 3.6875 -4.421875 L 3.6875 -3.953125 C 3.828125 -3.953125 3.953125 -3.9375 4.0625 -3.875 C 4.03125 -3.8125 4.03125 -3.78125 3.984375 -3.75 L 3.15625 -2.8125 L 2.171875 -3.953125 L 2.578125 -3.953125 L 2.578125 -4.421875 C 2.3125 -4.421875 1.6875 -4.390625 1.359375 -4.390625 C 1.046875 -4.390625 0.59375 -4.421875 0.265625 -4.421875 L 0.265625 -3.953125 L 0.984375 -3.953125 L 2.53125 -2.125 L 1.21875 -0.65625 C 1.0625 -0.46875 0.703125 -0.46875 0.21875 -0.46875 L 0.21875 0 C 0.5625 -0.015625 1.09375 -0.03125 1.140625 -0.03125 C 1.390625 -0.03125 1.96875 -0.015625 2.15625 0 L 2.15625 -0.46875 C 1.984375 -0.46875 1.796875 -0.515625 1.796875 -0.578125 C 1.796875 -0.59375 1.796875 -0.59375 1.859375 -0.671875 L 2.828125 -1.765625 L 3.921875 -0.46875 L 3.53125 -0.46875 L 3.53125 0 C 3.796875 -0.015625 4.40625 -0.03125 4.734375 -0.03125 C 5.046875 -0.03125 5.5 -0.015625 5.828125 0 L 5.828125 -0.46875 L 5.125 -0.46875 Z M 3.453125 -2.453125 "
           id="path5878" />
      </symbol>
      <symbol
         overflow="visible"
         id="symbol5249">
        <path
           style="stroke:none;"
           d=""
           id="path3507" />
      </symbol>
      <symbol
         overflow="visible"
         id="symbol2602">
        <path
           style="stroke:none;"
           d="M 4.125 -2.21875 C 4.125 -3.078125 4.03125 -4.578125 2.25 -4.578125 C 0.46875 -4.578125 0.375 -3.0625 0.375 -2.21875 C 0.375 -1.34375 0.484375 0.078125 2.25 0.078125 C 4.015625 0.078125 4.125 -1.328125 4.125 -2.21875 Z M 2.25 -0.234375 C 2.03125 -0.234375 1.8125 -0.3125 1.65625 -0.453125 C 1.46875 -0.625 1.34375 -0.71875 1.34375 -2.3125 C 1.34375 -2.78125 1.34375 -3.34375 1.421875 -3.671875 C 1.53125 -4.125 1.96875 -4.25 2.25 -4.25 C 2.515625 -4.25 2.96875 -4.140625 3.078125 -3.65625 C 3.15625 -3.328125 3.15625 -2.75 3.15625 -2.3125 C 3.15625 -1.8125 3.15625 -1.3125 3.09375 -0.921875 C 2.984375 -0.359375 2.515625 -0.234375 2.25 -0.234375 Z M 2.25 -0.234375 "
           id="path8123" />
      </symbol>
    </g>
    <g
       id="g3653">
      <symbol
         overflow="visible"
         id="symbol7483">
        <path
           style="stroke:none;"
           d=""
           id="path153" />
      </symbol>
      <symbol
         overflow="visible"
         id="symbol7123">
        <path
           style="stroke:none;"
           d="M 3.453125 -2.453125 L 4.609375 -3.75 C 4.75 -3.890625 4.8125 -3.953125 5.625 -3.953125 L 5.625 -4.421875 C 5.28125 -4.40625 4.765625 -4.390625 4.71875 -4.390625 C 4.46875 -4.390625 3.96875 -4.421875 3.6875 -4.421875 L 3.6875 -3.953125 C 3.828125 -3.953125 3.953125 -3.9375 4.0625 -3.875 C 4.03125 -3.8125 4.03125 -3.78125 3.984375 -3.75 L 3.15625 -2.8125 L 2.171875 -3.953125 L 2.578125 -3.953125 L 2.578125 -4.421875 C 2.3125 -4.421875 1.6875 -4.390625 1.359375 -4.390625 C 1.046875 -4.390625 0.59375 -4.421875 0.265625 -4.421875 L 0.265625 -3.953125 L 0.984375 -3.953125 L 2.53125 -2.125 L 1.21875 -0.65625 C 1.0625 -0.46875 0.703125 -0.46875 0.21875 -0.46875 L 0.21875 0 C 0.5625 -0.015625 1.09375 -0.03125 1.140625 -0.03125 C 1.390625 -0.03125 1.96875 -0.015625 2.15625 0 L 2.15625 -0.46875 C 1.984375 -0.46875 1.796875 -0.515625 1.796875 -0.578125 C 1.796875 -0.59375 1.796875 -0.59375 1.859375 -0.671875 L 2.828125 -1.765625 L 3.921875 -0.46875 L 3.53125 -0.46875 L 3.53125 0 C 3.796875 -0.015625 4.40625 -0.03125 4.734375 -0.03125 C 5.046875 -0.03125 5.5 -0.015625 5.828125 0 L 5.828125 -0.46875 L 5.125 -0.46875 Z M 3.453125 -2.453125 "
           id="path2244" />
      </symbol>
      <symbol
         overflow="visible"
         id="symbol8829">
        <path
           style="stroke:none;"
           d=""
           id="path8952" />
      </symbol>
      <symbol
         overflow="visible"
         id="symbol4344">
        <path
           style="stroke:none;"
           d="M 2.78125 -4.328125 C 2.78125 -4.578125 2.734375 -4.578125 2.4375 -4.578125 C 2 -4.21875 1.4375 -4.125 0.875 -4.125 L 0.703125 -4.125 L 0.703125 -3.734375 L 0.875 -3.734375 C 1.15625 -3.734375 1.578125 -3.78125 1.875 -3.875 L 1.875 -0.390625 L 0.78125 -0.390625 L 0.78125 0 C 1.109375 -0.03125 1.953125 -0.03125 2.328125 -0.03125 C 2.578125 -0.03125 2.828125 -0.015625 3.078125 -0.015625 C 3.296875 -0.015625 3.65625 -0.015625 3.859375 0 L 3.859375 -0.390625 L 2.78125 -0.390625 Z M 2.78125 -4.328125 "
           id="path5776" />
      </symbol>
    </g>
    <g
       id="g6925">
      <symbol
         overflow="visible"
         id="symbol2592">
        <path
           style="stroke:none;"
           d=""
           id="path1338" />
      </symbol>
      <symbol
         overflow="visible"
         id="symbol6291">
        <path
           style="stroke:none;"
           d="M 3.453125 -2.453125 L 4.609375 -3.75 C 4.75 -3.890625 4.8125 -3.953125 5.625 -3.953125 L 5.625 -4.421875 C 5.28125 -4.40625 4.765625 -4.390625 4.71875 -4.390625 C 4.46875 -4.390625 3.96875 -4.421875 3.6875 -4.421875 L 3.6875 -3.953125 C 3.828125 -3.953125 3.953125 -3.9375 4.0625 -3.875 C 4.03125 -3.8125 4.03125 -3.78125 3.984375 -3.75 L 3.15625 -2.8125 L 2.171875 -3.953125 L 2.578125 -3.953125 L 2.578125 -4.421875 C 2.3125 -4.421875 1.6875 -4.390625 1.359375 -4.390625 C 1.046875 -4.390625 0.59375 -4.421875 0.265625 -4.421875 L 0.265625 -3.953125 L 0.984375 -3.953125 L 2.53125 -2.125 L 1.21875 -0.65625 C 1.0625 -0.46875 0.703125 -0.46875 0.21875 -0.46875 L 0.21875 0 C 0.5625 -0.015625 1.09375 -0.03125 1.140625 -0.03125 C 1.390625 -0.03125 1.96875 -0.015625 2.15625 0 L 2.15625 -0.46875 C 1.984375 -0.46875 1.796875 -0.515625 1.796875 -0.578125 C 1.796875 -0.59375 1.796875 -0.59375 1.859375 -0.671875 L 2.828125 -1.765625 L 3.921875 -0.46875 L 3.53125 -0.46875 L 3.53125 0 C 3.796875 -0.015625 4.40625 -0.03125 4.734375 -0.03125 C 5.046875 -0.03125 5.5 -0.015625 5.828125 0 L 5.828125 -0.46875 L 5.125 -0.46875 Z M 3.453125 -2.453125 "
           id="path1035" />
      </symbol>
      <symbol
         overflow="visible"
         id="symbol2074">
        <path
           style="stroke:none;"
           d=""
           id="path3871" />
      </symbol>
      <symbol
         overflow="visible"
         id="symbol5243">
        <path
           style="stroke:none;"
           d="M 4.03125 -1.59375 L 3.59375 -1.59375 C 3.578125 -1.5 3.515625 -1.015625 3.390625 -0.984375 C 3.234375 -0.953125 2.828125 -0.953125 2.65625 -0.953125 L 1.703125 -0.953125 C 2.09375 -1.234375 2.484375 -1.53125 2.890625 -1.78125 C 3.453125 -2.140625 4.03125 -2.515625 4.03125 -3.21875 C 4.03125 -4.046875 3.234375 -4.578125 2.125 -4.578125 C 1.1875 -4.578125 0.46875 -4.203125 0.46875 -3.546875 C 0.46875 -3.140625 0.796875 -2.984375 1.015625 -2.984375 C 1.265625 -2.984375 1.546875 -3.15625 1.546875 -3.53125 C 1.546875 -3.875 1.296875 -4 1.28125 -4.015625 C 1.53125 -4.171875 1.84375 -4.1875 1.9375 -4.1875 C 2.515625 -4.1875 2.984375 -3.8125 2.984375 -3.203125 C 2.984375 -2.671875 2.625 -2.21875 2.21875 -1.875 L 0.5625 -0.390625 C 0.484375 -0.3125 0.46875 -0.3125 0.46875 -0.171875 L 0.46875 0 L 3.796875 0 Z M 4.03125 -1.59375 "
           id="path5838" />
      </symbol>
    </g>
    <g
       id="g6319">
      <symbol
         overflow="visible"
         id="symbol7754">
        <path
           style="stroke:none;"
           d=""
           id="path3127" />
      </symbol>
      <symbol
         overflow="visible"
         id="symbol4125">
        <path
           style="stroke:none;"
           d="M 3.453125 -2.453125 L 4.609375 -3.75 C 4.75 -3.890625 4.8125 -3.953125 5.625 -3.953125 L 5.625 -4.421875 C 5.28125 -4.40625 4.765625 -4.390625 4.71875 -4.390625 C 4.46875 -4.390625 3.96875 -4.421875 3.6875 -4.421875 L 3.6875 -3.953125 C 3.828125 -3.953125 3.953125 -3.9375 4.0625 -3.875 C 4.03125 -3.8125 4.03125 -3.78125 3.984375 -3.75 L 3.15625 -2.8125 L 2.171875 -3.953125 L 2.578125 -3.953125 L 2.578125 -4.421875 C 2.3125 -4.421875 1.6875 -4.390625 1.359375 -4.390625 C 1.046875 -4.390625 0.59375 -4.421875 0.265625 -4.421875 L 0.265625 -3.953125 L 0.984375 -3.953125 L 2.53125 -2.125 L 1.21875 -0.65625 C 1.0625 -0.46875 0.703125 -0.46875 0.21875 -0.46875 L 0.21875 0 C 0.5625 -0.015625 1.09375 -0.03125 1.140625 -0.03125 C 1.390625 -0.03125 1.96875 -0.015625 2.15625 0 L 2.15625 -0.46875 C 1.984375 -0.46875 1.796875 -0.515625 1.796875 -0.578125 C 1.796875 -0.59375 1.796875 -0.59375 1.859375 -0.671875 L 2.828125 -1.765625 L 3.921875 -0.46875 L 3.53125 -0.46875 L 3.53125 0 C 3.796875 -0.015625 4.40625 -0.03125 4.734375 -0.03125 C 5.046875 -0.03125 5.5 -0.015625 5.828125 0 L 5.828125 -0.46875 L 5.125 -0.46875 Z M 3.453125 -2.453125 "
           id="path2730" />
      </symbol>
      <symbol
         overflow="visible"
         id="symbol8647">
        <path
           style="stroke:none;"
           d=""
           id="path3889" />
      </symbol>
      <symbol
         overflow="visible"
         id="symbol6702">
        <path
           style="stroke:none;"
           d="M 2.109375 -2.265625 C 2.9375 -2.265625 2.96875 -1.640625 2.96875 -1.265625 C 2.96875 -0.96875 2.96875 -0.265625 2.125 -0.265625 C 1.9375 -0.265625 1.5 -0.3125 1.203125 -0.5 C 1.359375 -0.5625 1.53125 -0.71875 1.53125 -1.015625 C 1.53125 -1.34375 1.296875 -1.578125 0.96875 -1.578125 C 0.625 -1.578125 0.390625 -1.34375 0.390625 -1.015625 C 0.390625 -0.296875 1.171875 0.078125 2.15625 0.078125 C 3.609375 0.078125 4.109375 -0.671875 4.109375 -1.265625 C 4.109375 -1.796875 3.671875 -2.28125 2.890625 -2.453125 C 3.390625 -2.640625 3.859375 -3 3.859375 -3.578125 C 3.859375 -4.125 3.296875 -4.578125 2.1875 -4.578125 C 1.234375 -4.578125 0.640625 -4.109375 0.640625 -3.53125 C 0.640625 -3.171875 0.90625 -2.984375 1.171875 -2.984375 C 1.515625 -2.984375 1.703125 -3.25 1.703125 -3.515625 C 1.703125 -3.875 1.421875 -4 1.359375 -4.015625 C 1.640625 -4.21875 2 -4.25 2.140625 -4.25 C 2.828125 -4.25 2.828125 -3.796875 2.828125 -3.609375 C 2.828125 -3.28125 2.6875 -2.640625 2 -2.609375 C 1.8125 -2.59375 1.640625 -2.59375 1.609375 -2.578125 C 1.515625 -2.546875 1.515625 -2.46875 1.515625 -2.421875 C 1.515625 -2.265625 1.609375 -2.265625 1.734375 -2.265625 Z M 2.109375 -2.265625 "
           id="path4010" />
      </symbol>
    </g>
    <g
       id="g4733">
      <symbol
         overflow="visible"
         id="symbol5793">
        <path
           style="stroke:none;"
           d=""
           id="path7191" />
      </symbol>
      <symbol
         overflow="visible"
         id="symbol93">
        <path
           style="stroke:none;"
           d="M 3.453125 -2.453125 L 4.609375 -3.75 C 4.75 -3.890625 4.8125 -3.953125 5.625 -3.953125 L 5.625 -4.421875 C 5.28125 -4.40625 4.765625 -4.390625 4.71875 -4.390625 C 4.46875 -4.390625 3.96875 -4.421875 3.6875 -4.421875 L 3.6875 -3.953125 C 3.828125 -3.953125 3.953125 -3.9375 4.0625 -3.875 C 4.03125 -3.8125 4.03125 -3.78125 3.984375 -3.75 L 3.15625 -2.8125 L 2.171875 -3.953125 L 2.578125 -3.953125 L 2.578125 -4.421875 C 2.3125 -4.421875 1.6875 -4.390625 1.359375 -4.390625 C 1.046875 -4.390625 0.59375 -4.421875 0.265625 -4.421875 L 0.265625 -3.953125 L 0.984375 -3.953125 L 2.53125 -2.125 L 1.21875 -0.65625 C 1.0625 -0.46875 0.703125 -0.46875 0.21875 -0.46875 L 0.21875 0 C 0.5625 -0.015625 1.09375 -0.03125 1.140625 -0.03125 C 1.390625 -0.03125 1.96875 -0.015625 2.15625 0 L 2.15625 -0.46875 C 1.984375 -0.46875 1.796875 -0.515625 1.796875 -0.578125 C 1.796875 -0.59375 1.796875 -0.59375 1.859375 -0.671875 L 2.828125 -1.765625 L 3.921875 -0.46875 L 3.53125 -0.46875 L 3.53125 0 C 3.796875 -0.015625 4.40625 -0.03125 4.734375 -0.03125 C 5.046875 -0.03125 5.5 -0.015625 5.828125 0 L 5.828125 -0.46875 L 5.125 -0.46875 Z M 3.453125 -2.453125 "
           id="path8748" />
      </symbol>
      <symbol
         overflow="visible"
         id="symbol1071">
        <path
           style="stroke:none;"
           d=""
           id="path7991" />
      </symbol>
      <symbol
         overflow="visible"
         id="symbol6377">
        <path
           style="stroke:none;"
           d="M 4.21875 -1.078125 L 4.21875 -1.46875 L 3.46875 -1.46875 L 3.46875 -4.375 C 3.46875 -4.578125 3.421875 -4.609375 3.21875 -4.609375 L 3.109375 -4.609375 C 2.984375 -4.609375 2.921875 -4.609375 2.84375 -4.515625 L 0.28125 -1.46875 L 0.28125 -1.078125 L 2.515625 -1.078125 L 2.515625 -0.390625 L 1.640625 -0.390625 L 1.640625 0 C 1.984375 -0.03125 2.609375 -0.03125 2.96875 -0.03125 C 3.125 -0.03125 4.046875 -0.015625 4.21875 0 L 4.21875 -0.390625 L 3.46875 -0.390625 L 3.46875 -1.078125 Z M 2.59375 -3.65625 L 2.59375 -1.46875 L 0.765625 -1.46875 Z M 2.59375 -3.65625 "
           id="path6437" />
      </symbol>
    </g>
    <g
       id="g8903">
      <symbol
         overflow="visible"
         id="symbol7994">
        <path
           style="stroke:none;"
           d=""
           id="path1651" />
      </symbol>
      <symbol
         overflow="visible"
         id="symbol6848">
        <path
           style="stroke:none;"
           d="M 3.453125 -2.453125 L 4.609375 -3.75 C 4.75 -3.890625 4.8125 -3.953125 5.625 -3.953125 L 5.625 -4.421875 C 5.28125 -4.40625 4.765625 -4.390625 4.71875 -4.390625 C 4.46875 -4.390625 3.96875 -4.421875 3.6875 -4.421875 L 3.6875 -3.953125 C 3.828125 -3.953125 3.953125 -3.9375 4.0625 -3.875 C 4.03125 -3.8125 4.03125 -3.78125 3.984375 -3.75 L 3.15625 -2.8125 L 2.171875 -3.953125 L 2.578125 -3.953125 L 2.578125 -4.421875 C 2.3125 -4.421875 1.6875 -4.390625 1.359375 -4.390625 C 1.046875 -4.390625 0.59375 -4.421875 0.265625 -4.421875 L 0.265625 -3.953125 L 0.984375 -3.953125 L 2.53125 -2.125 L 1.21875 -0.65625 C 1.0625 -0.46875 0.703125 -0.46875 0.21875 -0.46875 L 0.21875 0 C 0.5625 -0.015625 1.09375 -0.03125 1.140625 -0.03125 C 1.390625 -0.03125 1.96875 -0.015625 2.15625 0 L 2.15625 -0.46875 C 1.984375 -0.46875 1.796875 -0.515625 1.796875 -0.578125 C 1.796875 -0.59375 1.796875 -0.59375 1.859375 -0.671875 L 2.828125 -1.765625 L 3.921875 -0.46875 L 3.53125 -0.46875 L 3.53125 0 C 3.796875 -0.015625 4.40625 -0.03125 4.734375 -0.03125 C 5.046875 -0.03125 5.5 -0.015625 5.828125 0 L 5.828125 -0.46875 L 5.125 -0.46875 Z M 3.453125 -2.453125 "
           id="path3157" />
      </symbol>
      <symbol
         overflow="visible"
         id="symbol530">
        <path
           style="stroke:none;"
           d=""
           id="path4998" />
      </symbol>
      <symbol
         overflow="visible"
         id="symbol3822">
        <path
           style="stroke:none;"
           d="M 1.3125 -3.453125 C 1.5625 -3.421875 1.75 -3.421875 1.828125 -3.421875 C 2 -3.421875 2.484375 -3.421875 3 -3.734375 C 3.203125 -3.84375 3.671875 -4.203125 3.671875 -4.40625 C 3.671875 -4.4375 3.671875 -4.578125 3.546875 -4.578125 C 3.546875 -4.578125 3.53125 -4.578125 3.4375 -4.546875 C 2.984375 -4.390625 2.578125 -4.34375 2.25 -4.34375 C 1.96875 -4.34375 1.53125 -4.390625 1.078125 -4.53125 C 0.96875 -4.578125 0.96875 -4.578125 0.953125 -4.578125 C 0.828125 -4.578125 0.828125 -4.453125 0.828125 -4.359375 L 0.828125 -2.296875 C 0.828125 -2.15625 0.828125 -2.0625 1.03125 -2.0625 C 1.09375 -2.0625 1.140625 -2.0625 1.203125 -2.109375 C 1.328125 -2.265625 1.59375 -2.53125 2.25 -2.53125 C 2.96875 -2.53125 2.96875 -1.9375 2.96875 -1.421875 C 2.96875 -0.96875 2.96875 -0.265625 2.015625 -0.265625 C 1.6875 -0.265625 1.328125 -0.390625 1.125 -0.609375 C 1.46875 -0.703125 1.5 -1 1.5 -1.09375 C 1.5 -1.4375 1.234375 -1.609375 0.984375 -1.609375 C 0.734375 -1.609375 0.46875 -1.453125 0.46875 -1.09375 C 0.46875 -0.453125 1.09375 0.078125 2.046875 0.078125 C 3.359375 0.078125 4.03125 -0.609375 4.03125 -1.40625 C 4.03125 -2.140625 3.484375 -2.859375 2.28125 -2.859375 C 2.015625 -2.859375 1.65625 -2.828125 1.3125 -2.625 Z M 1.3125 -3.453125 "
           id="path45" />
      </symbol>
    </g>
    <g
       id="g8648">
      <symbol
         overflow="visible"
         id="symbol1559">
        <path
           style="stroke:none;"
           d=""
           id="path9918" />
      </symbol>
      <symbol
         overflow="visible"
         id="symbol3676">
        <path
           style="stroke:none;"
           d="M 3.453125 -2.453125 L 4.609375 -3.75 C 4.75 -3.890625 4.8125 -3.953125 5.625 -3.953125 L 5.625 -4.421875 C 5.28125 -4.40625 4.765625 -4.390625 4.71875 -4.390625 C 4.46875 -4.390625 3.96875 -4.421875 3.6875 -4.421875 L 3.6875 -3.953125 C 3.828125 -3.953125 3.953125 -3.9375 4.0625 -3.875 C 4.03125 -3.8125 4.03125 -3.78125 3.984375 -3.75 L 3.15625 -2.8125 L 2.171875 -3.953125 L 2.578125 -3.953125 L 2.578125 -4.421875 C 2.3125 -4.421875 1.6875 -4.390625 1.359375 -4.390625 C 1.046875 -4.390625 0.59375 -4.421875 0.265625 -4.421875 L 0.265625 -3.953125 L 0.984375 -3.953125 L 2.53125 -2.125 L 1.21875 -0.65625 C 1.0625 -0.46875 0.703125 -0.46875 0.21875 -0.46875 L 0.21875 0 C 0.5625 -0.015625 1.09375 -0.03125 1.140625 -0.03125 C 1.390625 -0.03125 1.96875 -0.015625 2.15625 0 L 2.15625 -0.46875 C 1.984375 -0.46875 1.796875 -0.515625 1.796875 -0.578125 C 1.796875 -0.59375 1.796875 -0.59375 1.859375 -0.671875 L 2.828125 -1.765625 L 3.921875 -0.46875 L 3.53125 -0.46875 L 3.53125 0 C 3.796875 -0.015625 4.40625 -0.03125 4.734375 -0.03125 C 5.046875 -0.03125 5.5 -0.015625 5.828125 0 L 5.828125 -0.46875 L 5.125 -0.46875 Z M 3.453125 -2.453125 "
           id="path1477" />
      </symbol>
      <symbol
         overflow="visible"
         id="symbol6518">
        <path
           style="stroke:none;"
           d=""
           id="path4759" />
      </symbol>
      <symbol
         overflow="visible"
         id="symbol6429">
        <path
           style="stroke:none;"
           d="M 1.421875 -2.390625 C 1.421875 -2.859375 1.453125 -3.40625 1.703125 -3.75 C 2.046875 -4.234375 2.59375 -4.25 2.734375 -4.25 C 2.953125 -4.25 3.140625 -4.1875 3.234375 -4.109375 C 3.03125 -4.03125 2.90625 -3.859375 2.90625 -3.640625 C 2.90625 -3.375 3.09375 -3.15625 3.390625 -3.15625 C 3.671875 -3.15625 3.875 -3.359375 3.875 -3.65625 C 3.875 -4.078125 3.609375 -4.578125 2.71875 -4.578125 C 1.546875 -4.578125 0.390625 -3.859375 0.390625 -2.21875 C 0.390625 -1.28125 0.640625 0.078125 2.28125 0.078125 C 3.390625 0.078125 4.109375 -0.515625 4.109375 -1.4375 C 4.109375 -2.359375 3.390625 -2.921875 2.390625 -2.921875 C 2.25 -2.921875 1.765625 -2.921875 1.421875 -2.390625 Z M 2.265625 -0.265625 C 1.4375 -0.265625 1.4375 -1.09375 1.4375 -1.53125 C 1.4375 -2.03125 1.71875 -2.609375 2.328125 -2.609375 C 3.078125 -2.609375 3.078125 -2.078125 3.078125 -1.4375 C 3.078125 -0.796875 3.078125 -0.265625 2.265625 -0.265625 Z M 2.265625 -0.265625 "
           id="path2840" />
      </symbol>
    </g>
    <g
       id="g4841">
      <symbol
         overflow="visible"
         id="symbol5547">
        <path
           style="stroke:none;"
           d=""
           id="path2959" />
      </symbol>
      <symbol
         overflow="visible"
         id="symbol1872">
        <path
           style="stroke:none;"
           d="M 3.453125 -2.453125 L 4.609375 -3.75 C 4.75 -3.890625 4.8125 -3.953125 5.625 -3.953125 L 5.625 -4.421875 C 5.28125 -4.40625 4.765625 -4.390625 4.71875 -4.390625 C 4.46875 -4.390625 3.96875 -4.421875 3.6875 -4.421875 L 3.6875 -3.953125 C 3.828125 -3.953125 3.953125 -3.9375 4.0625 -3.875 C 4.03125 -3.8125 4.03125 -3.78125 3.984375 -3.75 L 3.15625 -2.8125 L 2.171875 -3.953125 L 2.578125 -3.953125 L 2.578125 -4.421875 C 2.3125 -4.421875 1.6875 -4.390625 1.359375 -4.390625 C 1.046875 -4.390625 0.59375 -4.421875 0.265625 -4.421875 L 0.265625 -3.953125 L 0.984375 -3.953125 L 2.53125 -2.125 L 1.21875 -0.65625 C 1.0625 -0.46875 0.703125 -0.46875 0.21875 -0.46875 L 0.21875 0 C 0.5625 -0.015625 1.09375 -0.03125 1.140625 -0.03125 C 1.390625 -0.03125 1.96875 -0.015625 2.15625 0 L 2.15625 -0.46875 C 1.984375 -0.46875 1.796875 -0.515625 1.796875 -0.578125 C 1.796875 -0.59375 1.796875 -0.59375 1.859375 -0.671875 L 2.828125 -1.765625 L 3.921875 -0.46875 L 3.53125 -0.46875 L 3.53125 0 C 3.796875 -0.015625 4.40625 -0.03125 4.734375 -0.03125 C 5.046875 -0.03125 5.5 -0.015625 5.828125 0 L 5.828125 -0.46875 L 5.125 -0.46875 Z M 3.453125 -2.453125 "
           id="path105785" />
      </symbol>
      <symbol
         overflow="visible"
         id="symbol6792">
        <path
           style="stroke:none;"
           d=""
           id="path9432" />
      </symbol>
      <symbol
         overflow="visible"
         id="symbol7964">
        <path
           style="stroke:none;"
           d="M 2.59375 -4.484375 C 2.4375 -4.5 2.265625 -4.515625 2.109375 -4.515625 L 1.625 -4.53125 C 1.578125 -4.53125 1.5625 -4.53125 1.515625 -4.53125 C 1.25 -4.53125 1.234375 -4.625 1.21875 -4.703125 L 0.78125 -4.703125 L 0.515625 -2.90625 L 0.96875 -2.90625 C 1.015625 -3.296875 1.109375 -3.484375 1.171875 -3.5 C 1.203125 -3.5 1.484375 -3.53125 1.96875 -3.53125 L 3.09375 -3.53125 C 2.90625 -3.328125 2.828125 -3.25 2.578125 -3 C 2.109375 -2.484375 1.53125 -1.515625 1.53125 -0.453125 C 1.53125 0.078125 1.96875 0.078125 2 0.078125 C 2.234375 0.078125 2.34375 -0.046875 2.390625 -0.078125 C 2.5 -0.203125 2.5 -0.28125 2.5 -0.75 C 2.5 -1.875 2.703125 -2.484375 3.109375 -2.90625 L 4.296875 -4.125 C 4.3125 -4.15625 4.328125 -4.171875 4.328125 -4.1875 C 4.34375 -4.21875 4.34375 -4.234375 4.34375 -4.484375 Z M 2.59375 -4.484375 "
           id="path2263" />
      </symbol>
    </g>
    <g
       id="g3268">
      <symbol
         overflow="visible"
         id="symbol5442">
        <path
           style="stroke:none;"
           d=""
           id="path7312" />
      </symbol>
      <symbol
         overflow="visible"
         id="symbol7013">
        <path
           style="stroke:none;"
           d="M 1.140625 -3.546875 L 1.140625 -0.46875 L 0.453125 -0.46875 L 0.453125 0 C 0.734375 -0.015625 1.328125 -0.03125 1.703125 -0.03125 C 2.09375 -0.03125 2.6875 -0.015625 2.953125 0 L 2.953125 -0.46875 L 2.265625 -0.46875 L 2.265625 -2.546875 C 2.265625 -3.640625 3.140625 -4.125 3.765625 -4.125 C 4.09375 -4.125 4.3125 -3.921875 4.3125 -3.15625 L 4.3125 -0.46875 L 3.625 -0.46875 L 3.625 0 C 3.90625 -0.015625 4.5 -0.03125 4.890625 -0.03125 C 5.28125 -0.03125 5.859375 -0.015625 6.140625 0 L 6.140625 -0.46875 L 5.453125 -0.46875 L 5.453125 -2.546875 C 5.453125 -3.640625 6.3125 -4.125 6.9375 -4.125 C 7.28125 -4.125 7.5 -3.921875 7.5 -3.15625 L 7.5 -0.46875 L 6.8125 -0.46875 L 6.8125 0 C 7.09375 -0.015625 7.6875 -0.03125 8.0625 -0.03125 C 8.453125 -0.03125 9.046875 -0.015625 9.328125 0 L 9.328125 -0.46875 L 8.640625 -0.46875 L 8.640625 -3.046875 C 8.640625 -4.078125 8.125 -4.484375 7.09375 -4.484375 C 6.1875 -4.484375 5.671875 -3.984375 5.40625 -3.53125 C 5.21875 -4.453125 4.296875 -4.484375 3.921875 -4.484375 C 3.046875 -4.484375 2.484375 -4.03125 2.15625 -3.40625 L 2.15625 -4.484375 L 0.453125 -4.40625 L 0.453125 -3.9375 C 1.0625 -3.9375 1.140625 -3.9375 1.140625 -3.546875 Z M 1.140625 -3.546875 "
           id="path9971" />
      </symbol>
      <symbol
         overflow="visible"
         id="symbol4596">
        <path
           style="stroke:none;"
           d=""
           id="path6949" />
      </symbol>
      <symbol
         overflow="visible"
         id="symbol5167">
        <path
           style="stroke:none;"
           d="M 2.78125 -4.328125 C 2.78125 -4.578125 2.734375 -4.578125 2.4375 -4.578125 C 2 -4.21875 1.4375 -4.125 0.875 -4.125 L 0.703125 -4.125 L 0.703125 -3.734375 L 0.875 -3.734375 C 1.15625 -3.734375 1.578125 -3.78125 1.875 -3.875 L 1.875 -0.390625 L 0.78125 -0.390625 L 0.78125 0 C 1.109375 -0.03125 1.953125 -0.03125 2.328125 -0.03125 C 2.578125 -0.03125 2.828125 -0.015625 3.078125 -0.015625 C 3.296875 -0.015625 3.65625 -0.015625 3.859375 0 L 3.859375 -0.390625 L 2.78125 -0.390625 Z M 2.78125 -4.328125 "
           id="path473" />
      </symbol>
    </g>
    <g
       id="g2315">
      <symbol
         overflow="visible"
         id="symbol1721">
        <path
           style="stroke:none;"
           d=""
           id="path2888" />
      </symbol>
      <symbol
         overflow="visible"
         id="symbol4378">
        <path
           style="stroke:none;"
           d="M 3.453125 -2.453125 L 4.609375 -3.75 C 4.75 -3.890625 4.8125 -3.953125 5.625 -3.953125 L 5.625 -4.421875 C 5.28125 -4.40625 4.765625 -4.390625 4.71875 -4.390625 C 4.46875 -4.390625 3.96875 -4.421875 3.6875 -4.421875 L 3.6875 -3.953125 C 3.828125 -3.953125 3.953125 -3.9375 4.0625 -3.875 C 4.03125 -3.8125 4.03125 -3.78125 3.984375 -3.75 L 3.15625 -2.8125 L 2.171875 -3.953125 L 2.578125 -3.953125 L 2.578125 -4.421875 C 2.3125 -4.421875 1.6875 -4.390625 1.359375 -4.390625 C 1.046875 -4.390625 0.59375 -4.421875 0.265625 -4.421875 L 0.265625 -3.953125 L 0.984375 -3.953125 L 2.53125 -2.125 L 1.21875 -0.65625 C 1.0625 -0.46875 0.703125 -0.46875 0.21875 -0.46875 L 0.21875 0 C 0.5625 -0.015625 1.09375 -0.03125 1.140625 -0.03125 C 1.390625 -0.03125 1.96875 -0.015625 2.15625 0 L 2.15625 -0.46875 C 1.984375 -0.46875 1.796875 -0.515625 1.796875 -0.578125 C 1.796875 -0.59375 1.796875 -0.59375 1.859375 -0.671875 L 2.828125 -1.765625 L 3.921875 -0.46875 L 3.53125 -0.46875 L 3.53125 0 C 3.796875 -0.015625 4.40625 -0.03125 4.734375 -0.03125 C 5.046875 -0.03125 5.5 -0.015625 5.828125 0 L 5.828125 -0.46875 L 5.125 -0.46875 Z M 3.453125 -2.453125 "
           id="path4017" />
      </symbol>
      <symbol
         overflow="visible"
         id="symbol7204">
        <path
           style="stroke:none;"
           d=""
           id="path7281" />
      </symbol>
      <symbol
         overflow="visible"
         id="symbol7384">
        <path
           style="stroke:none;"
           d="M 4.21875 -1.078125 L 4.21875 -1.46875 L 3.46875 -1.46875 L 3.46875 -4.375 C 3.46875 -4.578125 3.421875 -4.609375 3.21875 -4.609375 L 3.109375 -4.609375 C 2.984375 -4.609375 2.921875 -4.609375 2.84375 -4.515625 L 0.28125 -1.46875 L 0.28125 -1.078125 L 2.515625 -1.078125 L 2.515625 -0.390625 L 1.640625 -0.390625 L 1.640625 0 C 1.984375 -0.03125 2.609375 -0.03125 2.96875 -0.03125 C 3.125 -0.03125 4.046875 -0.015625 4.21875 0 L 4.21875 -0.390625 L 3.46875 -0.390625 L 3.46875 -1.078125 Z M 2.59375 -3.65625 L 2.59375 -1.46875 L 0.765625 -1.46875 Z M 2.59375 -3.65625 "
           id="path3996" />
      </symbol>
    </g>
    <g
       id="g2127">
      <symbol
         overflow="visible"
         id="symbol6479">
        <path
           style="stroke:none;"
           d=""
           id="path1365" />
      </symbol>
      <symbol
         overflow="visible"
         id="symbol9154">
        <path
           style="stroke:none;"
           d="M 1.140625 -3.546875 L 1.140625 -0.46875 L 0.453125 -0.46875 L 0.453125 0 C 0.734375 -0.015625 1.328125 -0.03125 1.703125 -0.03125 C 2.09375 -0.03125 2.6875 -0.015625 2.953125 0 L 2.953125 -0.46875 L 2.265625 -0.46875 L 2.265625 -2.546875 C 2.265625 -3.640625 3.140625 -4.125 3.765625 -4.125 C 4.09375 -4.125 4.3125 -3.921875 4.3125 -3.15625 L 4.3125 -0.46875 L 3.625 -0.46875 L 3.625 0 C 3.90625 -0.015625 4.5 -0.03125 4.890625 -0.03125 C 5.28125 -0.03125 5.859375 -0.015625 6.140625 0 L 6.140625 -0.46875 L 5.453125 -0.46875 L 5.453125 -2.546875 C 5.453125 -3.640625 6.3125 -4.125 6.9375 -4.125 C 7.28125 -4.125 7.5 -3.921875 7.5 -3.15625 L 7.5 -0.46875 L 6.8125 -0.46875 L 6.8125 0 C 7.09375 -0.015625 7.6875 -0.03125 8.0625 -0.03125 C 8.453125 -0.03125 9.046875 -0.015625 9.328125 0 L 9.328125 -0.46875 L 8.640625 -0.46875 L 8.640625 -3.046875 C 8.640625 -4.078125 8.125 -4.484375 7.09375 -4.484375 C 6.1875 -4.484375 5.671875 -3.984375 5.40625 -3.53125 C 5.21875 -4.453125 4.296875 -4.484375 3.921875 -4.484375 C 3.046875 -4.484375 2.484375 -4.03125 2.15625 -3.40625 L 2.15625 -4.484375 L 0.453125 -4.40625 L 0.453125 -3.9375 C 1.0625 -3.9375 1.140625 -3.9375 1.140625 -3.546875 Z M 1.140625 -3.546875 "
           id="path354" />
      </symbol>
      <symbol
         overflow="visible"
         id="symbol2546">
        <path
           style="stroke:none;"
           d=""
           id="path192" />
      </symbol>
      <symbol
         overflow="visible"
         id="symbol7974">
        <path
           style="stroke:none;"
           d="M 4.03125 -1.59375 L 3.59375 -1.59375 C 3.578125 -1.5 3.515625 -1.015625 3.390625 -0.984375 C 3.234375 -0.953125 2.828125 -0.953125 2.65625 -0.953125 L 1.703125 -0.953125 C 2.09375 -1.234375 2.484375 -1.53125 2.890625 -1.78125 C 3.453125 -2.140625 4.03125 -2.515625 4.03125 -3.21875 C 4.03125 -4.046875 3.234375 -4.578125 2.125 -4.578125 C 1.1875 -4.578125 0.46875 -4.203125 0.46875 -3.546875 C 0.46875 -3.140625 0.796875 -2.984375 1.015625 -2.984375 C 1.265625 -2.984375 1.546875 -3.15625 1.546875 -3.53125 C 1.546875 -3.875 1.296875 -4 1.28125 -4.015625 C 1.53125 -4.171875 1.84375 -4.1875 1.9375 -4.1875 C 2.515625 -4.1875 2.984375 -3.8125 2.984375 -3.203125 C 2.984375 -2.671875 2.625 -2.21875 2.21875 -1.875 L 0.5625 -0.390625 C 0.484375 -0.3125 0.46875 -0.3125 0.46875 -0.171875 L 0.46875 0 L 3.796875 0 Z M 4.03125 -1.59375 "
           id="path5623" />
      </symbol>
    </g>
    <g
       id="g4299">
      <symbol
         overflow="visible"
         id="symbol4763">
        <path
           style="stroke:none;"
           d=""
           id="path323" />
      </symbol>
      <symbol
         overflow="visible"
         id="symbol9349">
        <path
           style="stroke:none;"
           d="M 1.140625 -3.546875 L 1.140625 -0.46875 L 0.453125 -0.46875 L 0.453125 0 C 0.734375 -0.015625 1.328125 -0.03125 1.703125 -0.03125 C 2.09375 -0.03125 2.6875 -0.015625 2.953125 0 L 2.953125 -0.46875 L 2.265625 -0.46875 L 2.265625 -2.546875 C 2.265625 -3.640625 3.140625 -4.125 3.765625 -4.125 C 4.09375 -4.125 4.3125 -3.921875 4.3125 -3.15625 L 4.3125 -0.46875 L 3.625 -0.46875 L 3.625 0 C 3.90625 -0.015625 4.5 -0.03125 4.890625 -0.03125 C 5.28125 -0.03125 5.859375 -0.015625 6.140625 0 L 6.140625 -0.46875 L 5.453125 -0.46875 L 5.453125 -2.546875 C 5.453125 -3.640625 6.3125 -4.125 6.9375 -4.125 C 7.28125 -4.125 7.5 -3.921875 7.5 -3.15625 L 7.5 -0.46875 L 6.8125 -0.46875 L 6.8125 0 C 7.09375 -0.015625 7.6875 -0.03125 8.0625 -0.03125 C 8.453125 -0.03125 9.046875 -0.015625 9.328125 0 L 9.328125 -0.46875 L 8.640625 -0.46875 L 8.640625 -3.046875 C 8.640625 -4.078125 8.125 -4.484375 7.09375 -4.484375 C 6.1875 -4.484375 5.671875 -3.984375 5.40625 -3.53125 C 5.21875 -4.453125 4.296875 -4.484375 3.921875 -4.484375 C 3.046875 -4.484375 2.484375 -4.03125 2.15625 -3.40625 L 2.15625 -4.484375 L 0.453125 -4.40625 L 0.453125 -3.9375 C 1.0625 -3.9375 1.140625 -3.9375 1.140625 -3.546875 Z M 1.140625 -3.546875 "
           id="path257" />
      </symbol>
      <symbol
         overflow="visible"
         id="symbol1917">
        <path
           style="stroke:none;"
           d=""
           id="path1107" />
      </symbol>
      <symbol
         overflow="visible"
         id="symbol2340">
        <path
           style="stroke:none;"
           d="M 2.109375 -2.265625 C 2.9375 -2.265625 2.96875 -1.640625 2.96875 -1.265625 C 2.96875 -0.96875 2.96875 -0.265625 2.125 -0.265625 C 1.9375 -0.265625 1.5 -0.3125 1.203125 -0.5 C 1.359375 -0.5625 1.53125 -0.71875 1.53125 -1.015625 C 1.53125 -1.34375 1.296875 -1.578125 0.96875 -1.578125 C 0.625 -1.578125 0.390625 -1.34375 0.390625 -1.015625 C 0.390625 -0.296875 1.171875 0.078125 2.15625 0.078125 C 3.609375 0.078125 4.109375 -0.671875 4.109375 -1.265625 C 4.109375 -1.796875 3.671875 -2.28125 2.890625 -2.453125 C 3.390625 -2.640625 3.859375 -3 3.859375 -3.578125 C 3.859375 -4.125 3.296875 -4.578125 2.1875 -4.578125 C 1.234375 -4.578125 0.640625 -4.109375 0.640625 -3.53125 C 0.640625 -3.171875 0.90625 -2.984375 1.171875 -2.984375 C 1.515625 -2.984375 1.703125 -3.25 1.703125 -3.515625 C 1.703125 -3.875 1.421875 -4 1.359375 -4.015625 C 1.640625 -4.21875 2 -4.25 2.140625 -4.25 C 2.828125 -4.25 2.828125 -3.796875 2.828125 -3.609375 C 2.828125 -3.28125 2.6875 -2.640625 2 -2.609375 C 1.8125 -2.59375 1.640625 -2.59375 1.609375 -2.578125 C 1.515625 -2.546875 1.515625 -2.46875 1.515625 -2.421875 C 1.515625 -2.265625 1.609375 -2.265625 1.734375 -2.265625 Z M 2.109375 -2.265625 "
           id="path4942" />
      </symbol>
    </g>
    <g
       id="g9916">
      <symbol
         overflow="visible"
         id="symbol5984">
        <path
           style="stroke:none;"
           d=""
           id="path6247" />
      </symbol>
      <symbol
         overflow="visible"
         id="symbol1014">
        <path
           style="stroke:none;"
           d="M 1.140625 -3.546875 L 1.140625 -0.46875 L 0.453125 -0.46875 L 0.453125 0 C 0.734375 -0.015625 1.328125 -0.03125 1.703125 -0.03125 C 2.09375 -0.03125 2.6875 -0.015625 2.953125 0 L 2.953125 -0.46875 L 2.265625 -0.46875 L 2.265625 -2.546875 C 2.265625 -3.640625 3.140625 -4.125 3.765625 -4.125 C 4.09375 -4.125 4.3125 -3.921875 4.3125 -3.15625 L 4.3125 -0.46875 L 3.625 -0.46875 L 3.625 0 C 3.90625 -0.015625 4.5 -0.03125 4.890625 -0.03125 C 5.28125 -0.03125 5.859375 -0.015625 6.140625 0 L 6.140625 -0.46875 L 5.453125 -0.46875 L 5.453125 -2.546875 C 5.453125 -3.640625 6.3125 -4.125 6.9375 -4.125 C 7.28125 -4.125 7.5 -3.921875 7.5 -3.15625 L 7.5 -0.46875 L 6.8125 -0.46875 L 6.8125 0 C 7.09375 -0.015625 7.6875 -0.03125 8.0625 -0.03125 C 8.453125 -0.03125 9.046875 -0.015625 9.328125 0 L 9.328125 -0.46875 L 8.640625 -0.46875 L 8.640625 -3.046875 C 8.640625 -4.078125 8.125 -4.484375 7.09375 -4.484375 C 6.1875 -4.484375 5.671875 -3.984375 5.40625 -3.53125 C 5.21875 -4.453125 4.296875 -4.484375 3.921875 -4.484375 C 3.046875 -4.484375 2.484375 -4.03125 2.15625 -3.40625 L 2.15625 -4.484375 L 0.453125 -4.40625 L 0.453125 -3.9375 C 1.0625 -3.9375 1.140625 -3.9375 1.140625 -3.546875 Z M 1.140625 -3.546875 "
           id="path6178" />
      </symbol>
      <symbol
         overflow="visible"
         id="symbol7425">
        <path
           style="stroke:none;"
           d=""
           id="path6366" />
      </symbol>
      <symbol
         overflow="visible"
         id="symbol771">
        <path
           style="stroke:none;"
           d="M 4.21875 -1.078125 L 4.21875 -1.46875 L 3.46875 -1.46875 L 3.46875 -4.375 C 3.46875 -4.578125 3.421875 -4.609375 3.21875 -4.609375 L 3.109375 -4.609375 C 2.984375 -4.609375 2.921875 -4.609375 2.84375 -4.515625 L 0.28125 -1.46875 L 0.28125 -1.078125 L 2.515625 -1.078125 L 2.515625 -0.390625 L 1.640625 -0.390625 L 1.640625 0 C 1.984375 -0.03125 2.609375 -0.03125 2.96875 -0.03125 C 3.125 -0.03125 4.046875 -0.015625 4.21875 0 L 4.21875 -0.390625 L 3.46875 -0.390625 L 3.46875 -1.078125 Z M 2.59375 -3.65625 L 2.59375 -1.46875 L 0.765625 -1.46875 Z M 2.59375 -3.65625 "
           id="path9896" />
      </symbol>
    </g>
    <g
       id="g3960">
      <symbol
         overflow="visible"
         id="symbol3467">
        <path
           style="stroke:none;"
           d=""
           id="path194" />
      </symbol>
      <symbol
         overflow="visible"
         id="symbol5408">
        <path
           style="stroke:none;"
           d="M 1.140625 -3.546875 L 1.140625 -0.46875 L 0.453125 -0.46875 L 0.453125 0 C 0.734375 -0.015625 1.328125 -0.03125 1.703125 -0.03125 C 2.09375 -0.03125 2.6875 -0.015625 2.953125 0 L 2.953125 -0.46875 L 2.265625 -0.46875 L 2.265625 -2.546875 C 2.265625 -3.640625 3.140625 -4.125 3.765625 -4.125 C 4.09375 -4.125 4.3125 -3.921875 4.3125 -3.15625 L 4.3125 -0.46875 L 3.625 -0.46875 L 3.625 0 C 3.90625 -0.015625 4.5 -0.03125 4.890625 -0.03125 C 5.28125 -0.03125 5.859375 -0.015625 6.140625 0 L 6.140625 -0.46875 L 5.453125 -0.46875 L 5.453125 -2.546875 C 5.453125 -3.640625 6.3125 -4.125 6.9375 -4.125 C 7.28125 -4.125 7.5 -3.921875 7.5 -3.15625 L 7.5 -0.46875 L 6.8125 -0.46875 L 6.8125 0 C 7.09375 -0.015625 7.6875 -0.03125 8.0625 -0.03125 C 8.453125 -0.03125 9.046875 -0.015625 9.328125 0 L 9.328125 -0.46875 L 8.640625 -0.46875 L 8.640625 -3.046875 C 8.640625 -4.078125 8.125 -4.484375 7.09375 -4.484375 C 6.1875 -4.484375 5.671875 -3.984375 5.40625 -3.53125 C 5.21875 -4.453125 4.296875 -4.484375 3.921875 -4.484375 C 3.046875 -4.484375 2.484375 -4.03125 2.15625 -3.40625 L 2.15625 -4.484375 L 0.453125 -4.40625 L 0.453125 -3.9375 C 1.0625 -3.9375 1.140625 -3.9375 1.140625 -3.546875 Z M 1.140625 -3.546875 "
           id="path6568" />
      </symbol>
      <symbol
         overflow="visible"
         id="symbol829">
        <path
           style="stroke:none;"
           d=""
           id="path1951" />
      </symbol>
      <symbol
         overflow="visible"
         id="symbol9829">
        <path
           style="stroke:none;"
           d="M 1.3125 -3.453125 C 1.5625 -3.421875 1.75 -3.421875 1.828125 -3.421875 C 2 -3.421875 2.484375 -3.421875 3 -3.734375 C 3.203125 -3.84375 3.671875 -4.203125 3.671875 -4.40625 C 3.671875 -4.4375 3.671875 -4.578125 3.546875 -4.578125 C 3.546875 -4.578125 3.53125 -4.578125 3.4375 -4.546875 C 2.984375 -4.390625 2.578125 -4.34375 2.25 -4.34375 C 1.96875 -4.34375 1.53125 -4.390625 1.078125 -4.53125 C 0.96875 -4.578125 0.96875 -4.578125 0.953125 -4.578125 C 0.828125 -4.578125 0.828125 -4.453125 0.828125 -4.359375 L 0.828125 -2.296875 C 0.828125 -2.15625 0.828125 -2.0625 1.03125 -2.0625 C 1.09375 -2.0625 1.140625 -2.0625 1.203125 -2.109375 C 1.328125 -2.265625 1.59375 -2.53125 2.25 -2.53125 C 2.96875 -2.53125 2.96875 -1.9375 2.96875 -1.421875 C 2.96875 -0.96875 2.96875 -0.265625 2.015625 -0.265625 C 1.6875 -0.265625 1.328125 -0.390625 1.125 -0.609375 C 1.46875 -0.703125 1.5 -1 1.5 -1.09375 C 1.5 -1.4375 1.234375 -1.609375 0.984375 -1.609375 C 0.734375 -1.609375 0.46875 -1.453125 0.46875 -1.09375 C 0.46875 -0.453125 1.09375 0.078125 2.046875 0.078125 C 3.359375 0.078125 4.03125 -0.609375 4.03125 -1.40625 C 4.03125 -2.140625 3.484375 -2.859375 2.28125 -2.859375 C 2.015625 -2.859375 1.65625 -2.828125 1.3125 -2.625 Z M 1.3125 -3.453125 "
           id="path4684" />
      </symbol>
    </g>
  </defs>
  <g
     inkscape:label="Layer 1"
     inkscape:groupmode="layer"
     id="layer1">
    <rect
       style="font-variation-settings:normal;vector-effect:none;fill:#0066ff;fill-opacity:1;fill-rule:evenodd;stroke:#0066ff;stroke-width:0.663408;stroke-linecap:butt;stroke-linejoin:round;stroke-miterlimit:4;stroke-dasharray:none;stroke-dashoffset:0;stroke-opacity:1;-inkscape-stroke:none;paint-order:markers fill stroke;stop-color:#000000"
       id="rect1573"
       width="5.2056465"
       height="5.2472391"
       x="6.4330082"
       y="108.85444"
       rx="4.6139629e-08"
       ry="4.6139629e-08" />
    <path
       style="fill:#0066ff;stroke:#0066ff;stroke-width:0.989549;stroke-linecap:butt;stroke-linejoin:miter;stroke-miterlimit:4;stroke-dasharray:none;stroke-opacity:1"
       d="m 9.1273101,91.58306 c -0.00601,14.06232 -0.012029,28.12415 -0.018043,42.18553"
       id="path2663"
       inkscape:path-effect="#path-effect2665"
       inkscape:original-d="m 9.1273101,91.58306 c -0.00601,14.06232 -0.012029,28.12415 -0.018043,42.18553" />
    <rect
       style="font-variation-settings:normal;vector-effect:none;fill:#0066ff;fill-opacity:1;fill-rule:evenodd;stroke:#0066ff;stroke-width:0.663408;stroke-linecap:butt;stroke-linejoin:round;stroke-miterlimit:4;stroke-dasharray:none;stroke-dashoffset:0;stroke-opacity:1;-inkscape-stroke:none;paint-order:markers fill stroke;stop-color:#000000"
       id="rect1573-5"
       width="5.2056465"
       height="5.2472391"
       x="76.881821"
       y="80.647003"
       rx="4.6139629e-08"
       ry="4.6139629e-08"
       transform="rotate(30.994213)" />
    <path
       style="fill:#0066ff;stroke:#0066ff;stroke-width:1;stroke-linecap:butt;stroke-linejoin:miter;stroke-miterlimit:4;stroke-dasharray:none;stroke-opacity:1"
       d="M 39.621502,92.332137 C 29.450412,106.14476 19.279673,119.9569 9.1092671,133.76859"
       id="path2663-3"
       inkscape:path-effect="#path-effect2810"
       inkscape:original-d="M 39.621502,92.332137 C 29.450431,106.14477 19.279673,119.9569 9.1092671,133.76859" />
    <path
       style="fill:#0066ff;stroke:#0066ff;stroke-width:1;stroke-linecap:butt;stroke-linejoin:miter;stroke-miterlimit:4;stroke-dasharray:none;stroke-opacity:1"
       d="M 70.793978,92.56154 C 50.23173,106.29768 29.670153,120.03336 9.1092671,133.76859"
       id="path2663-3-6"
       inkscape:original-d="M 70.793978,92.56154 C 50.231746,106.2977 29.67015,120.03336 9.1092671,133.76859"
       inkscape:path-effect="#path-effect4517" />
    <path
       style="fill:#0066ff;stroke:#0066ff;stroke-width:1;stroke-linecap:butt;stroke-linejoin:miter;stroke-miterlimit:4;stroke-dasharray:none;stroke-opacity:1"
       d="M 102.74284,92.425375 C 87.182649,106.28605 71.622971,120.14627 56.063818,134.00602"
       id="path2663-3-3"
       inkscape:path-effect="#path-effect4290"
       inkscape:original-d="M 102.74284,92.425375 C 87.182666,106.28607 71.622971,120.14627 56.063818,134.00602" />
    <g
       id="g1187"
       transform="translate(-19.891889,-27.0716)">
      <rect
         style="font-variation-settings:normal;vector-effect:none;fill:#00aa00;fill-opacity:1;fill-rule:evenodd;stroke:#00aa00;stroke-width:0.663408;stroke-linecap:butt;stroke-linejoin:round;stroke-miterlimit:4;stroke-dasharray:none;stroke-dashoffset:0;stroke-opacity:1;-inkscape-stroke:none;paint-order:markers fill stroke;stop-color:#000000"
         id="rect1573-7"
         width="5.2056465"
         height="5.2472391"
         x="26.1259"
         y="76.148697"
         rx="4.6139629e-08"
         ry="4.6139629e-08" />
      <path
         style="fill:#00ff00;stroke:#00aa00;stroke-width:0.949383;stroke-linecap:butt;stroke-linejoin:miter;stroke-miterlimit:4;stroke-dasharray:none;stroke-opacity:1"
         d="m 28.728725,78.772316 c 1.76e-4,8.921167 3.53e-4,17.842092 5.29e-4,26.762784"
         id="path3215"
         inkscape:path-effect="#path-effect3217"
         inkscape:original-d="m 28.728725,78.772316 c 5.29e-4,8.921167 5.29e-4,17.842092 5.29e-4,26.762784" />
    </g>
    <g
       id="g1195"
       transform="translate(-32.571349,-26.834584)">
      <rect
         style="font-variation-settings:normal;vector-effect:none;fill:#00aa00;fill-opacity:1;fill-rule:evenodd;stroke:#00aa00;stroke-width:0.663408;stroke-linecap:butt;stroke-linejoin:round;stroke-miterlimit:4;stroke-dasharray:none;stroke-dashoffset:0;stroke-opacity:1;-inkscape-stroke:none;paint-order:markers fill stroke;stop-color:#000000"
         id="rect1573-7-2"
         width="5.2056465"
         height="5.2472391"
         x="100.60754"
         y="76.148376"
         rx="4.6139629e-08"
         ry="4.6139629e-08" />
      <path
         style="fill:#00ff00;stroke:#00aa00;stroke-width:0.949383;stroke-linecap:butt;stroke-linejoin:miter;stroke-miterlimit:4;stroke-dasharray:none;stroke-opacity:1"
         d="m 103.21036,78.771996 c 1.8e-4,8.921166 3.5e-4,17.842086 5.3e-4,26.762784"
         id="path3215-2"
         inkscape:path-effect="#path-effect3565"
         inkscape:original-d="m 103.21036,78.771996 c 5.3e-4,8.921166 5.3e-4,17.842086 5.3e-4,26.762784" />
    </g>
    <g
       id="g1191"
       transform="translate(-25.600413,-26.772896)">
      <rect
         style="font-variation-settings:normal;vector-effect:none;fill:#00aa00;fill-opacity:1;fill-rule:evenodd;stroke:#00aa00;stroke-width:0.663408;stroke-linecap:butt;stroke-linejoin:round;stroke-miterlimit:4;stroke-dasharray:none;stroke-dashoffset:0;stroke-opacity:1;-inkscape-stroke:none;paint-order:markers fill stroke;stop-color:#000000"
         id="rect1573-7-2-0"
         width="5.2056465"
         height="5.2472391"
         x="62.969902"
         y="76.158142"
         rx="4.6139629e-08"
         ry="4.6139629e-08" />
      <path
         style="fill:#00ff00;stroke:#00aa00;stroke-width:0.949383;stroke-linecap:butt;stroke-linejoin:miter;stroke-miterlimit:4;stroke-dasharray:none;stroke-opacity:1"
         d="m 65.572723,78.781763 c 1.77e-4,8.921167 3.53e-4,17.842089 5.3e-4,26.762777"
         id="path3215-2-9"
         inkscape:path-effect="#path-effect3803"
         inkscape:original-d="m 65.572723,78.781763 c 5.3e-4,8.921167 5.3e-4,17.842089 5.3e-4,26.762777" />
    </g>
    <g
       id="g1199"
       transform="translate(-38.803514,-26.861405)">
      <rect
         style="font-variation-settings:normal;vector-effect:none;fill:#00aa00;fill-opacity:1;fill-rule:evenodd;stroke:#00aa00;stroke-width:0.663408;stroke-linecap:butt;stroke-linejoin:round;stroke-miterlimit:4;stroke-dasharray:none;stroke-dashoffset:0;stroke-opacity:1;-inkscape-stroke:none;paint-order:markers fill stroke;stop-color:#000000"
         id="rect1573-7-2-0-6"
         width="5.2056465"
         height="5.2472391"
         x="138.98689"
         y="76.15538"
         rx="4.6139629e-08"
         ry="4.6139629e-08" />
      <path
         style="fill:#00ff00;stroke:#00aa00;stroke-width:0.949383;stroke-linecap:butt;stroke-linejoin:miter;stroke-miterlimit:4;stroke-dasharray:none;stroke-opacity:1"
         d="m 141.58973,78.778998 c 1.8e-4,8.921167 3.5e-4,17.842095 5.3e-4,26.762782"
         id="path3215-2-9-1"
         inkscape:path-effect="#path-effect4337"
         inkscape:original-d="m 141.58973,78.778998 c 5.3e-4,8.921167 5.3e-4,17.842095 5.3e-4,26.762782" />
    </g>
    <ellipse
       style="fill:#ffccaa;stroke:#ff6600;stroke-width:1.15106;stroke-miterlimit:4;stroke-dasharray:none;paint-order:markers fill stroke"
       id="path1043-0"
       cx="9.0989714"
       cy="85.099495"
       rx="6.041441"
       ry="6.2795515" />
    <ellipse
       style="fill:#ffccaa;stroke:#ff6600;stroke-width:1.15106;stroke-miterlimit:4;stroke-dasharray:none;paint-order:markers fill stroke"
       id="path1043-0-3"
       cx="39.907837"
       cy="85.299805"
       rx="6.041441"
       ry="6.2795515" />
    <ellipse
       style="fill:#ffccaa;stroke:#ff6600;stroke-width:1.15106;stroke-miterlimit:4;stroke-dasharray:none;paint-order:markers fill stroke"
       id="path1043-0-3-6"
       cx="70.653656"
       cy="85.547012"
       rx="6.041441"
       ry="6.2795515" />
    <ellipse
       style="fill:#ffccaa;stroke:#ff6600;stroke-width:1.15106;stroke-miterlimit:4;stroke-dasharray:none;paint-order:markers fill stroke"
       id="path1043-0-3-6-7"
       cx="102.64368"
       cy="85.405006"
       rx="6.041441"
       ry="6.2795515" />
    <ellipse
       style="fill:#ffccaa;stroke:#ff6600;stroke-width:1.15106;stroke-miterlimit:4;stroke-dasharray:none;paint-order:markers fill stroke"
       id="path1043-0-3-6-7-5"
       cx="137.31508"
       cy="85.173538"
       rx="6.041441"
       ry="6.2795515" />
    <rect
       style="font-variation-settings:normal;vector-effect:none;fill:#0066ff;fill-opacity:1;fill-rule:evenodd;stroke:#0066ff;stroke-width:0.663408;stroke-linecap:butt;stroke-linejoin:round;stroke-miterlimit:4;stroke-dasharray:none;stroke-dashoffset:0;stroke-opacity:1;-inkscape-stroke:none;paint-order:markers fill stroke;stop-color:#000000"
       id="rect1573-2"
       width="5.2056465"
       height="5.2472391"
       x="-37.636166"
       y="113.02392"
       rx="4.6139629e-08"
       ry="4.6139629e-08"
       transform="rotate(-34.597102)" />
    <rect
       style="font-variation-settings:normal;vector-effect:none;fill:#0066ff;fill-opacity:1;fill-rule:evenodd;stroke:#0066ff;stroke-width:0.663408;stroke-linecap:butt;stroke-linejoin:round;stroke-miterlimit:4;stroke-dasharray:none;stroke-dashoffset:0;stroke-opacity:1;-inkscape-stroke:none;paint-order:markers fill stroke;stop-color:#000000"
       id="rect1573-2-7"
       width="5.2056465"
       height="5.2472391"
       x="6.953649"
       y="142.71692"
       rx="4.6139629e-08"
       ry="4.6139629e-08"
       transform="rotate(-32.961713)" />
    <rect
       style="font-variation-settings:normal;vector-effect:none;fill:#0066ff;fill-opacity:1;fill-rule:evenodd;stroke:#0066ff;stroke-width:0.663408;stroke-linecap:butt;stroke-linejoin:round;stroke-miterlimit:4;stroke-dasharray:none;stroke-dashoffset:0;stroke-opacity:1;-inkscape-stroke:none;paint-order:markers fill stroke;stop-color:#000000"
       id="rect1573-2-2"
       width="5.2059999"
       height="5.2472391"
       x="106.73309"
       y="101.09032"
       rx="4.6139629e-08"
       ry="4.6139629e-08"
       transform="rotate(4.6235934)" />
    <rect
       style="font-variation-settings:normal;vector-effect:none;fill:#0066ff;fill-opacity:1;fill-rule:evenodd;stroke:#0066ff;stroke-width:0.663408;stroke-linecap:butt;stroke-linejoin:round;stroke-miterlimit:4;stroke-dasharray:none;stroke-dashoffset:0;stroke-opacity:1;-inkscape-stroke:none;paint-order:markers fill stroke;stop-color:#000000"
       id="rect1573-2-0"
       width="5.2056465"
       height="5.2472391"
       x="-12.690907"
       y="160.2571"
       rx="4.6139629e-08"
       ry="4.6139629e-08"
       transform="rotate(-47.746778)" />
    <rect
       style="font-variation-settings:normal;vector-effect:none;fill:#0066ff;fill-opacity:1;fill-rule:evenodd;stroke:#0066ff;stroke-width:0.663408;stroke-linecap:butt;stroke-linejoin:round;stroke-miterlimit:4;stroke-dasharray:none;stroke-dashoffset:0;stroke-opacity:1;-inkscape-stroke:none;paint-order:markers fill stroke;stop-color:#000000"
       id="rect1573-2-23"
       width="5.2056465"
       height="5.2472391"
       x="15.128868"
       y="168.97989"
       rx="4.6139629e-08"
       ry="4.6139629e-08"
       transform="rotate(-40.657911)" />
    <rect
       style="font-variation-settings:normal;vector-effect:none;fill:#0066ff;fill-opacity:1;fill-rule:evenodd;stroke:#0066ff;stroke-width:0.663408;stroke-linecap:butt;stroke-linejoin:round;stroke-miterlimit:4;stroke-dasharray:none;stroke-dashoffset:0;stroke-opacity:1;-inkscape-stroke:none;paint-order:markers fill stroke;stop-color:#000000"
       id="rect1573-2-75"
       width="5.2056465"
       height="5.2472391"
       x="134.96577"
       y="109.70464"
       rx="4.6139629e-08"
       ry="4.6139629e-08"
       transform="rotate(-0.05719194)" />
    <rect
       style="font-variation-settings:normal;vector-effect:none;fill:#0066ff;fill-opacity:1;fill-rule:evenodd;stroke:#0066ff;stroke-width:0.663408;stroke-linecap:butt;stroke-linejoin:round;stroke-miterlimit:4;stroke-dasharray:none;stroke-dashoffset:0;stroke-opacity:1;-inkscape-stroke:none;paint-order:markers fill stroke;stop-color:#000000"
       id="rect1573-2-9"
       width="5.2056465"
       height="5.2472391"
       x="-26.163189"
       y="134.21034"
       rx="4.6139629e-08"
       ry="4.6139629e-08"
       transform="rotate(-42.567779)" />
    <rect
       style="font-variation-settings:normal;vector-effect:none;fill:#0066ff;fill-opacity:1;fill-rule:evenodd;stroke:#0066ff;stroke-width:0.663408;stroke-linecap:butt;stroke-linejoin:round;stroke-miterlimit:4;stroke-dasharray:none;stroke-dashoffset:0;stroke-opacity:1;-inkscape-stroke:none;paint-order:markers fill stroke;stop-color:#000000"
       id="rect1573-2-1"
       width="5.2056465"
       height="5.2472391"
       x="4.1992145"
       y="123.50915"
       rx="4.6139629e-08"
       ry="4.6139629e-08"
       transform="rotate(-19.776447)" />
    <rect
       style="font-variation-settings:normal;vector-effect:none;fill:#0066ff;fill-opacity:1;fill-rule:evenodd;stroke:#0066ff;stroke-width:0.663408;stroke-linecap:butt;stroke-linejoin:round;stroke-miterlimit:4;stroke-dasharray:none;stroke-dashoffset:0;stroke-opacity:1;-inkscape-stroke:none;paint-order:markers fill stroke;stop-color:#000000"
       id="rect1573-2-8"
       width="5.2056465"
       height="5.2472391"
       x="95.980949"
       y="80.583275"
       rx="4.6139629e-08"
       ry="4.6139629e-08"
       transform="rotate(20.263047)" />
    <path
       style="fill:#0066ff;stroke:#0066ff;stroke-width:1;stroke-linecap:butt;stroke-linejoin:miter;stroke-miterlimit:4;stroke-dasharray:none;stroke-opacity:1"
       d="M 56.117653,134.03465 C 50.618967,120.13389 45.120257,106.23307 39.621502,92.332137"
       id="path2663-1"
       inkscape:path-effect="#path-effect3993"
       inkscape:original-d="M 56.117653,134.03465 C 50.618565,120.13405 45.119856,106.23323 39.621502,92.332137" />
    <path
       style="fill:#0066ff;stroke:#0066ff;stroke-width:0.909685;stroke-linecap:butt;stroke-linejoin:miter;stroke-miterlimit:4;stroke-dasharray:none;stroke-opacity:1"
       d="M 137.99986,133.48971 C 126.2473,119.80135 114.49497,106.11325 102.74284,92.425375"
       id="path2663-1-0"
       inkscape:path-effect="#path-effect4376"
       inkscape:original-d="M 137.99986,133.48971 C 126.24672,119.80185 114.4944,106.11374 102.74284,92.425375" />
    <path
       style="fill:#0066ff;stroke:#0066ff;stroke-width:1;stroke-linecap:butt;stroke-linejoin:miter;stroke-miterlimit:4;stroke-dasharray:none;stroke-opacity:1"
       d="m 98.531365,133.71983 c 1.403801,-13.76458 2.807625,-27.52939 4.211475,-41.294455"
       id="path2663-1-6"
       inkscape:path-effect="#path-effect4341"
       inkscape:original-d="m 98.531365,133.71983 c 1.403707,-13.76459 2.807525,-27.5294 4.211475,-41.294455" />
    <path
       style="fill:#0066ff;stroke:#0066ff;stroke-width:1.0001;stroke-linecap:butt;stroke-linejoin:miter;stroke-miterlimit:4;stroke-dasharray:none;stroke-opacity:1"
       d="M 98.531365,133.71983 C 111.46467,119.79581 124.3981,105.87166 137.33165,91.947371"
       id="path2663-1-6-6"
       inkscape:path-effect="#path-effect4411"
       inkscape:original-d="M 98.531365,133.71983 C 111.46489,119.79601 124.39832,105.87186 137.33165,91.947371" />
    <path
       style="fill:#0066ff;stroke:#0066ff;stroke-width:1;stroke-linecap:butt;stroke-linejoin:miter;stroke-miterlimit:4;stroke-dasharray:none;stroke-opacity:1"
       d="M 98.531365,133.71983 C 89.294391,120.00585 80.05752,106.29202 70.820708,92.57828"
       id="path2663-1-9"
       inkscape:path-effect="#path-effect4175"
       inkscape:original-d="M 98.531365,133.71983 C 89.293855,120.00621 80.056985,106.29238 70.820708,92.57828" />
    <path
       style="fill:#0066ff;stroke:#0066ff;stroke-width:1;stroke-linecap:butt;stroke-linejoin:miter;stroke-miterlimit:4;stroke-dasharray:none;stroke-opacity:1"
       d="m 56.063818,134.00602 c 4.933693,-13.82694 9.86738,-27.65386 14.801063,-41.48077"
       id="path2663-1-7"
       inkscape:path-effect="#path-effect4087"
       inkscape:original-d="m 56.063818,134.00602 c 4.933404,-13.82704 9.867095,-27.65396 14.801063,-41.48077" />
    <path
       style="fill:#0066ff;stroke:#0066ff;stroke-width:0.987867;stroke-linecap:butt;stroke-linejoin:miter;stroke-miterlimit:4;stroke-dasharray:none;stroke-opacity:1"
       d="m 137.96805,133.45777 c -0.22435,-13.82271 -0.4487,-27.64531 -0.67304,-41.467797"
       id="path2663-1-7-2"
       inkscape:path-effect="#path-effect4446"
       inkscape:original-d="m 137.96805,133.45777 c -0.22432,-13.82271 -0.44867,-27.64531 -0.67304,-41.467797" />
    <g
       id="g1203"
       transform="translate(-42.744099,-27.149913)">
      <rect
         style="font-variation-settings:normal;vector-effect:none;fill:#00aa00;fill-opacity:1;fill-rule:evenodd;stroke:#00aa00;stroke-width:0.663408;stroke-linecap:butt;stroke-linejoin:round;stroke-miterlimit:4;stroke-dasharray:none;stroke-dashoffset:0;stroke-opacity:1;-inkscape-stroke:none;paint-order:markers fill stroke;stop-color:#000000"
         id="rect1573-7-6"
         width="5.2056465"
         height="5.2472391"
         x="177.45354"
         y="76.148697"
         rx="4.6139629e-08"
         ry="4.6139629e-08" />
      <path
         style="fill:#00ff00;stroke:#00aa00;stroke-width:0.949383;stroke-linecap:butt;stroke-linejoin:miter;stroke-miterlimit:4;stroke-dasharray:none;stroke-opacity:1"
         d="m 180.05636,78.772316 c 1.8e-4,8.921167 3.5e-4,17.842092 5.3e-4,26.762784"
         id="path3215-7"
         inkscape:path-effect="#path-effect4001"
         inkscape:original-d="m 180.05636,78.772316 c 5.3e-4,8.921167 5.3e-4,17.842092 5.3e-4,26.762784" />
    </g>
    <g
       id="g4625"
       transform="translate(-44.195238,-0.16347328)">
      <ellipse
         style="fill:#cccccc;stroke:#000000;stroke-width:1.15106;stroke-miterlimit:4;stroke-dasharray:none;paint-order:markers fill stroke"
         id="path1043-6"
         cx="53.294239"
         cy="140.61208"
         rx="6.041441"
         ry="6.2795515" />
      <g
         inkscape:label=""
         transform="matrix(0.84910767,0,0,0.85842257,-29.226673,72.153964)"
         id="g103605">
        <g
           id="g7962">
          <g
             style="fill:#000000;fill-opacity:1"
             id="g8296">
            <use
               xlink:href="#symbol7123"
               x="91.925003"
               y="81.962997"
               id="use7201"
               width="100%"
               height="100%" />
          </g>
          <g
             style="fill:#000000;fill-opacity:1"
             id="g2430">
            <use
               xlink:href="#symbol4344"
               x="97.972"
               y="83.457001"
               id="use7630"
               width="100%"
               height="100%" />
          </g>
        </g>
      </g>
    </g>
    <g
       id="g4616"
       transform="translate(-32.891729,0.17301758)">
      <ellipse
         style="fill:#cccccc;stroke:#000000;stroke-width:1.15106;stroke-miterlimit:4;stroke-dasharray:none;paint-order:markers fill stroke"
         id="path1043-3"
         cx="88.49839"
         cy="140.61208"
         rx="6.041441"
         ry="6.2795515" />
      <g
         inkscape:label=""
         transform="matrix(0.84910767,0,0,0.85842257,6.1878424,71.801109)"
         id="g103912">
        <g
           id="g7620">
          <g
             style="fill:#000000;fill-opacity:1"
             id="g967">
            <use
               xlink:href="#symbol6291"
               x="91.925003"
               y="81.962997"
               id="use9020"
               width="100%"
               height="100%" />
          </g>
          <g
             style="fill:#000000;fill-opacity:1"
             id="g9901">
            <use
               xlink:href="#symbol5243"
               x="97.972"
               y="83.457001"
               id="use5313"
               width="100%"
               height="100%" />
          </g>
        </g>
      </g>
    </g>
    <g
       id="g4607"
       transform="translate(-30.080919,-0.18902279)">
      <ellipse
         style="fill:#cccccc;stroke:#000000;stroke-width:1.15106;stroke-miterlimit:4;stroke-dasharray:none;paint-order:markers fill stroke"
         id="path1043-6-5"
         cx="128.32936"
         cy="140.61208"
         rx="6.041441"
         ry="6.2795515" />
      <g
         inkscape:label=""
         transform="matrix(0.84910767,0,0,0.85842257,46.04349,72.140181)"
         id="g104249">
        <g
           id="g9243">
          <g
             style="fill:#000000;fill-opacity:1"
             id="g2710">
            <use
               xlink:href="#symbol4125"
               x="91.925003"
               y="81.962997"
               id="use3003"
               width="100%"
               height="100%" />
          </g>
          <g
             style="fill:#000000;fill-opacity:1"
             id="g4384">
            <use
               xlink:href="#symbol6702"
               x="97.972"
               y="83.457001"
               id="use428"
               width="100%"
               height="100%" />
          </g>
        </g>
      </g>
    </g>
    <g
       inkscape:label=""
       transform="matrix(0.76791205,0,0,0.79205251,-66.674943,21.792972)"
       id="g5581">
      <g
         id="g88">
        <g
           style="fill:#000000;fill-opacity:1"
           id="g8737">
          <use
             xlink:href="#symbol7013"
             x="91.925003"
             y="81.962997"
             id="use9011"
             width="100%"
             height="100%" />
        </g>
        <g
           style="fill:#000000;fill-opacity:1"
           id="g9939">
          <use
             xlink:href="#symbol5167"
             x="101.473"
             y="83.457001"
             id="use1223"
             width="100%"
             height="100%" />
        </g>
      </g>
    </g>
    <g
       id="g6213"
       transform="translate(129.19346,-0.33489892)">
      <ellipse
         style="fill:#cccccc;stroke:#000000;stroke-width:1.15106;stroke-miterlimit:4;stroke-dasharray:none;paint-order:markers fill stroke"
         id="path1043"
         cx="9.0985327"
         cy="140.61162"
         rx="6.041441"
         ry="6.2795515" />
      <g
         inkscape:label=""
         transform="matrix(0.83760958,0,0,0.85164502,-72.263475,72.766816)"
         id="g6082">
        <g
           id="g742">
          <g
             style="fill:#000000;fill-opacity:1"
             id="g6924">
            <use
               xlink:href="#symbol4378"
               x="91.925003"
               y="81.962997"
               id="use4745"
               width="100%"
               height="100%" />
          </g>
          <g
             style="fill:#000000;fill-opacity:1"
             id="g196">
            <use
               xlink:href="#symbol7384"
               x="97.972"
               y="83.457001"
               id="use2664"
               width="100%"
               height="100%" />
          </g>
        </g>
      </g>
    </g>
    <g
       inkscape:label=""
       transform="matrix(0.75438974,0,0,0.82840061,-34.627476,19.135157)"
       id="g6697">
      <g
         id="g1061">
        <g
           style="fill:#000000;fill-opacity:1"
           id="g8100">
          <use
             xlink:href="#symbol9154"
             x="91.925003"
             y="81.962997"
             id="use9981"
             width="100%"
             height="100%" />
        </g>
        <g
           style="fill:#000000;fill-opacity:1"
           id="g7285">
          <use
             xlink:href="#symbol7974"
             x="101.473"
             y="83.457001"
             id="use7400"
             width="100%"
             height="100%" />
        </g>
      </g>
    </g>
    <g
       inkscape:label=""
       transform="matrix(0.75885231,0,0,0.84029046,-4.207375,18.079072)"
       id="g7314">
      <g
         id="g9552">
        <g
           style="fill:#000000;fill-opacity:1"
           id="g860">
          <use
             xlink:href="#symbol9349"
             x="91.925003"
             y="81.962997"
             id="use7257"
             width="100%"
             height="100%" />
        </g>
        <g
           style="fill:#000000;fill-opacity:1"
           id="g6729">
          <use
             xlink:href="#symbol2340"
             x="101.473"
             y="83.457001"
             id="use5593"
             width="100%"
             height="100%" />
        </g>
      </g>
    </g>
    <g
       inkscape:label=""
       transform="matrix(0.71729635,0,0,0.76588158,31.760488,23.957653)"
       id="g7881">
      <g
         id="g7346">
        <g
           style="fill:#000000;fill-opacity:1"
           id="g1214">
          <use
             xlink:href="#symbol1014"
             x="91.925003"
             y="81.962997"
             id="use3900"
             width="100%"
             height="100%" />
        </g>
        <g
           style="fill:#000000;fill-opacity:1"
           id="g8793">
          <use
             xlink:href="#symbol771"
             x="101.473"
             y="83.457001"
             id="use1530"
             width="100%"
             height="100%" />
        </g>
      </g>
    </g>
    <g
       inkscape:label=""
       transform="matrix(0.77416612,0,0,0.77451718,61.04162,22.956372)"
       id="g8478">
      <g
         id="g7527">
        <g
           style="fill:#000000;fill-opacity:1"
           id="g3284">
          <use
             xlink:href="#symbol5408"
             x="91.925003"
             y="81.962997"
             id="use7270"
             width="100%"
             height="100%" />
        </g>
        <g
           style="fill:#000000;fill-opacity:1"
           id="g9850">
          <use
             xlink:href="#symbol9829"
             x="101.473"
             y="83.457001"
             id="use7686"
             width="100%"
             height="100%" />
        </g>
      </g>
    </g>
  </g>
</svg>
